<?xml version="1.0" standalone="no"?>
<!DOCTYPE svg PUBLIC "-//W3C//DTD SVG 20010904//EN"
 "http://www.w3.org/TR/2001/REC-SVG-20010904/DTD/svg10.dtd">
<svg version="1.0" xmlns="http://www.w3.org/2000/svg"
 width="512.000000pt" height="227.000000pt" viewBox="0 0 512.000000 227.000000"
 preserveAspectRatio="xMidYMid meet">

<g transform="translate(0.000000,227.000000) scale(0.100000,-0.100000)"
fill="" stroke="none">
<path d="M0 1135 l0 -1135 2560 0 2560 0 0 1135 0 1135 -2560 0 -2560 0 0
-1135z m1628 705 c5 0 23 -31 41 -70 17 -38 35 -70 40 -70 5 0 18 -27 31 -59
17 -46 19 -64 11 -79 -15 -29 -14 -34 8 -23 10 6 21 8 23 5 3 -2 4 -62 2 -132
-2 -100 0 -123 9 -108 40 63 43 64 182 102 33 8 80 22 105 30 53 17 63 17 55
5 -3 -6 -7 -27 -9 -48 -7 -73 -27 -176 -40 -207 -7 -17 -11 -35 -9 -41 1 -5
-8 -23 -22 -39 -28 -33 -27 -43 3 -27 15 8 39 5 98 -13 44 -13 93 -31 109 -40
17 -9 38 -16 48 -16 24 0 22 -7 -20 -59 -117 -142 -172 -177 -297 -190 -36 -4
-61 -11 -64 -19 -4 -13 114 -12 341 4 76 5 77 5 77 -19 0 -23 -2 -24 -102 -30
-57 -4 -188 -9 -293 -12 -104 -3 -207 -8 -227 -10 -33 -4 -38 -2 -38 15 0 11
-4 20 -10 20 -5 0 -10 -6 -10 -14 0 -21 -11 -25 -40 -14 -20 7 -22 11 -10 18
11 7 -1 10 -36 10 -43 0 -52 -3 -50 -17 2 -25 -31 -28 -38 -5 -4 11 -18 22
-31 25 -27 5 -33 -10 -12 -32 10 -11 -31 -12 -238 -7 -272 7 -383 17 -396 38
-17 27 11 31 133 20 142 -14 368 -16 368 -4 0 5 -46 12 -102 16 -57 3 -128 11
-158 17 -30 6 -65 13 -77 15 -20 4 -106 114 -121 154 -3 8 -14 26 -24 39 -10
13 -18 27 -18 30 0 4 28 13 63 20 34 7 74 17 88 23 15 5 57 10 93 10 l67 1
-40 41 c-22 23 -42 52 -45 66 -7 30 -15 290 -9 290 2 0 17 -7 33 -15 17 -9 32
-15 35 -15 3 1 29 -10 58 -23 29 -13 63 -29 77 -36 59 -27 94 -52 122 -91 36
-48 44 -47 23 3 -8 20 -14 46 -14 59 1 13 -8 64 -19 113 -11 50 -19 104 -18
121 3 31 44 114 57 114 4 0 22 26 40 58 18 31 39 61 46 65 7 5 32 38 55 74
l42 67 23 -52 c12 -29 27 -52 31 -52z m1152 -91 c0 -9 -16 -30 -36 -46 l-36
-29 36 -19 c20 -11 36 -27 36 -36 0 -28 -119 -129 -152 -129 -15 0 -18 9 -18
63 0 37 -5 69 -12 76 -10 11 -10 14 0 18 15 6 16 65 0 81 -24 24 8 37 96 37
74 1 86 -2 86 -16z m147 -94 c12 -60 24 -122 27 -137 5 -23 2 -28 -15 -28 -24
0 -23 -1 -45 124 -18 103 -26 107 -39 21 -16 -114 -26 -145 -47 -145 -16 0
-19 5 -14 28 3 15 13 67 22 116 22 126 28 138 62 134 26 -3 28 -7 49 -113z
m181 71 c2 -27 -1 -36 -12 -36 -9 0 -16 7 -16 15 0 8 -7 15 -15 15 -12 0 -15
-22 -17 -112 -3 -97 -5 -113 -20 -116 -15 -3 -18 9 -20 109 -2 79 -7 114 -15
117 -7 2 -13 -3 -13 -12 0 -9 -7 -16 -15 -16 -11 0 -15 11 -15 38 l0 37 78 -1
77 -2 3 -36z m128 -66 c28 -136 30 -173 7 -168 -14 2 -22 27 -39 113 -15 80
-22 103 -27 85 -6 -23 -37 -187 -37 -196 0 -2 -9 -4 -20 -4 -11 0 -20 1 -20 3
0 18 42 232 50 252 8 21 16 26 38 23 26 -3 28 -7 48 -108z m511 -10 c27 -144
28 -162 6 -158 -18 3 -25 25 -43 136 -7 41 -16 70 -20 65 -4 -4 -16 -52 -25
-105 -15 -83 -20 -98 -36 -98 -23 0 -23 -7 1 130 25 136 32 152 68 148 26 -3
28 -7 49 -118z m169 98 c16 -12 46 -37 66 -56 35 -33 36 -36 23 -62 -27 -52
-106 -140 -126 -140 -18 0 -19 8 -19 133 0 160 3 166 56 125z m209 12 c5 -8
55 -252 55 -267 0 -2 -9 -3 -20 -3 -11 0 -20 1 -20 3 0 10 -41 212 -44 214 -2
2 -11 -40 -20 -94 -22 -124 -21 -123 -46 -123 -16 0 -20 5 -16 18 2 9 12 62
22 117 22 131 28 145 58 145 14 0 28 -5 31 -10z m-795 -110 c0 -109 0 -110 24
-110 15 0 26 7 29 20 3 11 12 20 21 20 12 0 16 -10 16 -42 l0 -43 -65 -1 -65
-2 0 134 c0 127 1 134 20 134 19 0 20 -7 20 -110z m158 74 c-2 -26 2 -40 17
-50 30 -22 35 -17 35 36 0 43 3 50 20 50 18 0 20 -7 20 -69 0 -46 4 -71 13
-74 10 -3 10 -9 0 -26 -7 -11 -13 -39 -13 -61 0 -33 -3 -40 -20 -40 -18 0 -20
7 -20 56 0 42 -4 60 -17 70 -29 22 -32 17 -35 -53 -2 -55 -6 -68 -20 -71 -16
-3 -18 6 -18 79 0 60 -4 87 -15 99 -15 17 -11 50 6 50 5 0 9 9 9 20 0 14 7 20
21 20 18 0 20 -5 17 -36z m-834 -376 c27 -65 115 -498 116 -570 0 -5 -18 -8
-39 -8 l-39 0 -7 53 c-10 83 -57 331 -65 346 -8 16 -30 -75 -62 -254 -11 -66
-22 -126 -24 -132 -2 -8 -19 -13 -40 -13 l-36 0 6 58 c19 156 106 530 127 543
28 17 50 9 63 -23z m258 -230 l3 -263 53 -3 c31 -2 52 1 52 7 0 6 18 11 40 11
l40 0 0 -53 0 -52 -130 0 -130 0 0 308 0 307 35 0 35 0 2 -262z m298 232 c90
-45 165 -95 206 -137 33 -35 36 -42 32 -84 -7 -68 -85 -214 -175 -326 -28 -36
-40 -43 -69 -43 l-34 0 0 259 0 259 -27 20 c-25 18 -25 21 -12 50 8 18 15 32
17 32 1 0 30 -14 62 -30z m550 -27 l0 -53 -40 0 c-22 0 -40 5 -40 10 0 6 -22
10 -50 10 l-50 0 0 -60 0 -60 54 0 c52 0 66 -8 66 -41 0 -6 -23 -33 -51 -61
-55 -55 -95 -130 -101 -188 l-3 -35 75 2 75 1 3 30 c3 26 7 29 43 30 l39 2 0
-73 0 -72 -160 0 -160 0 0 30 c0 66 21 153 52 215 18 36 35 68 36 73 2 4 -5 7
-16 7 -26 0 -28 8 -24 159 l3 126 125 0 124 0 0 -52z m131 41 c17 -15 20 -15
43 0 24 15 26 15 47 -15 20 -29 20 -31 3 -44 -16 -11 -16 -15 -4 -29 12 -15
10 -21 -13 -43 -26 -26 -27 -26 -47 -8 -17 16 -24 16 -47 6 -25 -12 -29 -10
-50 15 -22 28 -22 28 -2 42 16 11 18 17 8 28 -10 12 -7 20 11 39 28 30 28 30
51 9z m316 -34 c19 -64 90 -423 98 -497 l7 -63 -39 0 -39 0 -11 88 c-17 119
-53 305 -62 315 -7 7 -81 -341 -81 -382 0 -18 -6 -21 -40 -21 -32 0 -40 4 -40
18 0 48 75 405 111 525 20 67 21 68 51 65 27 -3 33 -9 45 -48z m-272 -365 l0
-200 -37 -3 -38 -3 0 206 0 206 38 -3 37 -3 0 -200z m-2465 -550 c0 -10 -11
-16 -32 -17 l-33 -1 33 -4 c39 -5 45 -33 7 -33 -14 0 -25 -4 -25 -10 0 -5 11
-10 25 -10 16 0 25 -6 25 -15 0 -11 -12 -15 -50 -15 -32 0 -50 4 -50 12 0 9
-3 9 -12 0 -25 -25 -103 -6 -92 23 4 11 12 12 31 4 14 -5 28 -7 31 -4 3 3 -9
10 -26 16 -23 8 -32 17 -32 33 0 13 3 25 6 29 3 3 48 6 100 6 76 0 94 -2 94
-14z m109 3 c11 -10 13 -10 7 0 -5 8 1 12 18 12 19 0 26 -7 31 -30 4 -16 10
-30 15 -30 4 0 10 14 14 30 5 27 9 30 46 30 l40 0 0 -60 c0 -53 -2 -60 -20
-60 -17 0 -20 7 -21 53 l0 52 -20 -53 c-17 -44 -25 -53 -42 -50 -15 2 -26 16
-38 47 -16 43 -16 44 -23 17 -4 -15 -4 -36 -1 -47 5 -15 1 -19 -15 -19 -11 0
-23 7 -26 15 -4 8 -10 15 -15 15 -5 0 -9 -7 -9 -15 0 -8 -9 -15 -20 -15 -18 0
-20 7 -20 60 l0 60 43 0 c24 0 49 -6 56 -12z m281 -3 c15 -14 18 -14 30 0 16
20 74 19 94 -1 15 -14 16 -14 16 0 0 12 10 16 43 16 59 0 66 -8 65 -68 -1 -42
-5 -52 -19 -52 -9 0 -20 8 -24 18 -6 16 -7 16 -16 0 -12 -22 -38 -23 -45 -3
-5 13 -8 13 -27 0 -29 -20 -63 -19 -85 3 -18 18 -19 18 -42 0 -12 -10 -37 -18
-56 -18 l-34 0 0 60 0 60 42 0 c23 0 49 -7 58 -15z m404 -1 c15 -14 16 -14 16
0 0 13 13 16 70 16 58 0 70 -3 70 -17 0 -15 1 -15 18 0 12 11 36 16 81 16 l63
-1 -4 -44 c-2 -24 -2 -44 0 -44 2 0 12 20 23 45 15 34 25 45 42 45 19 0 27
-10 43 -52 l19 -53 3 53 c3 44 6 52 23 52 16 0 19 -7 19 -40 0 -36 3 -40 25
-40 18 0 25 -5 25 -20 0 -18 -7 -20 -60 -20 -33 0 -69 5 -80 12 -14 9 -24 9
-42 0 -32 -16 -148 -13 -175 4 -20 13 -23 13 -23 -1 0 -8 -9 -15 -20 -15 -13
0 -20 7 -20 20 0 16 -7 20 -30 20 -17 0 -29 -3 -29 -7 5 -33 -26 -48 -37 -19
-5 12 -10 12 -34 -2 -60 -35 -123 26 -86 82 19 30 75 36 100 10z m679 -4 l14
-20 18 20 c22 24 67 26 89 4 24 -23 20 -70 -6 -88 -30 -21 -54 -20 -78 4 l-20
20 -22 -20 c-13 -12 -35 -20 -55 -20 l-33 0 0 60 0 60 39 0 c29 0 44 -6 54
-20z m291 -2 c9 -12 16 -30 16 -40 0 -30 -37 -58 -75 -58 l-35 0 0 60 0 60 39
0 c30 0 44 -6 55 -22z m46 -32 c0 -30 -4 -58 -10 -61 -6 -4 -10 17 -10 54 0
34 4 61 10 61 6 0 10 -24 10 -54z m90 45 c0 -6 -12 -9 -26 -8 -38 3 -41 -19
-4 -31 16 -6 33 -18 36 -27 14 -36 -50 -62 -76 -30 -10 12 -6 13 24 8 28 -4
36 -2 36 10 0 8 -13 20 -30 26 -28 9 -40 37 -23 54 10 11 63 8 63 -2z m116 -2
c4 -8 -3 -9 -24 -5 -21 5 -34 2 -46 -9 -35 -36 -9 -81 44 -73 36 5 40 -9 5
-18 -57 -14 -101 59 -59 100 18 18 70 21 80 5z m118 -11 c21 -30 20 -54 -4
-78 -26 -26 -64 -25 -90 2 -38 41 -13 98 45 98 24 0 39 -7 49 -22z m114 -12
c2 -16 -2 -32 -9 -37 -10 -6 -10 -11 1 -23 7 -9 10 -19 7 -22 -3 -3 -12 3 -19
15 -15 24 -48 28 -48 7 0 -8 -4 -18 -10 -21 -6 -4 -10 17 -10 55 l0 61 43 -3
c38 -3 42 -6 45 -32z m116 18 c42 -41 1 -109 -61 -102 -27 3 -28 6 -31 61 l-3
57 40 0 c23 0 46 -7 55 -16z m-2706 -26 c-6 -18 -320 -18 -325 0 -4 9 33 12
162 12 129 0 166 -3 163 -12z m3190 0 c-4 -10 -45 -13 -163 -13 -118 0 -159 3
-162 13 -4 9 33 12 162 12 129 0 166 -3 163 -12z"/>
<path d="M1524 1823 c-35 -54 -36 -59 -26 -103 7 -34 7 -41 -2 -27 -35 57 -28
62 -125 -87 -12 -20 -8 -28 52 -109 35 -48 80 -112 98 -142 18 -30 37 -55 41
-55 4 0 9 28 11 63 3 53 3 50 5 -25 2 -88 11 -107 33 -66 6 12 43 61 80 110
38 48 69 97 69 108 0 25 -1 25 -52 -1 l-41 -21 23 39 c13 21 27 42 32 48 15
16 9 62 -12 88 -11 14 -32 51 -46 81 -14 31 -29 56 -33 56 -4 0 -18 23 -31 50
-13 28 -27 50 -31 50 -5 0 -25 -26 -45 -57z"/>
<path d="M1360 1515 c0 -11 11 -62 25 -114 13 -52 22 -98 19 -102 -2 -5 16
-52 41 -106 25 -54 40 -92 33 -85 -32 32 -35 9 -7 -65 17 -43 34 -100 39 -128
4 -27 19 -75 33 -105 l25 -55 1 173 c1 158 -1 176 -20 215 -17 32 -18 39 -5
28 14 -12 16 -9 16 36 0 45 -7 59 -81 168 -44 66 -89 129 -100 140 -19 19 -19
19 -19 0z"/>
<path d="M1060 1362 c0 -43 4 -54 27 -72 l28 -22 -29 8 c-28 7 -29 6 -23 -26
4 -18 7 -47 7 -64 0 -31 1 -32 113 -68 61 -19 114 -34 116 -32 2 2 -4 15 -13
30 -26 38 -15 37 14 -2 14 -18 28 -34 33 -34 11 0 9 188 -3 195 -5 3 -15 -7
-23 -21 l-14 -27 -7 45 -7 45 -97 42 c-53 24 -103 45 -109 48 -10 4 -13 -9
-13 -45z"/>
<path d="M1723 1388 c-12 -13 -46 -60 -77 -106 -56 -82 -56 -83 -56 -157 0
-41 4 -75 8 -75 5 0 17 16 27 35 30 55 27 35 -6 -43 -25 -61 -30 -84 -28 -145
1 -40 5 -83 9 -97 6 -23 9 -20 34 35 39 86 87 225 81 235 -3 4 5 52 16 107 20
92 31 233 18 233 -3 0 -15 -10 -26 -22z"/>
<path d="M2041 1396 c-18 -6 -39 -20 -47 -31 -13 -18 -14 -18 -14 -1 0 14 -5
17 -22 11 -13 -3 -38 -10 -57 -15 -18 -5 -37 -12 -41 -17 -4 -4 -11 -62 -14
-128 l-7 -119 22 19 c17 15 15 10 -7 -19 -17 -24 -23 -38 -14 -34 9 3 51 13
95 23 101 22 120 35 74 51 l-34 11 43 13 c29 9 44 20 46 34 39 204 40 216 24
215 -7 0 -28 -6 -47 -13z"/>
<path d="M1785 1229 c-26 -52 -37 -90 -39 -129 -2 -30 -13 -79 -24 -109 -12
-30 -20 -56 -18 -58 6 -6 53 61 61 86 4 14 16 32 26 40 15 13 21 38 29 125 6
60 8 111 6 114 -3 2 -21 -29 -41 -69z"/>
<path d="M1363 1125 c6 -86 31 -145 60 -145 7 0 18 -14 25 -32 8 -23 15 -29
23 -21 7 7 -1 43 -29 124 -62 184 -88 208 -79 74z"/>
<path d="M1110 1110 c0 -4 23 -25 50 -46 28 -21 50 -41 50 -45 0 -4 29 -22 65
-40 44 -23 59 -36 49 -40 -12 -3 1 -16 45 -44 33 -22 61 -42 61 -46 0 -7 75
-59 85 -59 13 0 -9 47 -40 85 -59 72 -90 103 -120 120 -16 9 -22 14 -12 11 24
-8 21 11 -6 28 -41 27 -227 89 -227 76z"/>
<path d="M1876 1046 c-69 -23 -105 -54 -106 -88 0 -9 -8 -19 -17 -23 -20 -6
-93 -97 -93 -114 0 -15 117 49 157 85 18 17 33 30 33 28 0 -1 13 10 29 24 15
15 45 42 65 60 64 58 44 66 -68 28z"/>
<path d="M2033 980 c-32 -49 -47 -81 -40 -84 7 -2 4 -5 -5 -5 -40 -2 -22 -21
48 -50 42 -18 78 -30 81 -27 3 2 0 13 -6 24 -10 19 -8 20 28 15 31 -4 41 -2
49 14 6 10 29 39 51 63 23 25 41 50 41 57 0 11 -54 29 -77 24 -7 -1 -13 2 -13
7 0 9 -77 42 -95 42 -6 -1 -33 -36 -62 -80z"/>
<path d="M1978 1010 c-25 -16 -67 -52 -94 -79 -27 -26 -74 -62 -104 -79 -30
-18 -48 -32 -39 -32 24 0 112 31 130 46 8 8 21 14 27 14 7 0 12 5 12 11 0 5 4
8 8 5 15 -9 46 20 91 83 48 69 39 77 -31 31z"/>
<path d="M985 1018 c-63 -21 -92 -28 -109 -28 -10 0 -16 -3 -14 -7 26 -54 35
-64 62 -72 17 -5 23 -10 14 -10 -10 -1 -18 -3 -18 -7 0 -13 46 -84 55 -84 26
0 184 64 179 72 -4 6 2 7 15 3 30 -9 27 5 -20 79 -44 70 -65 84 -56 39 l5 -28
-23 28 c-25 28 -41 31 -90 15z"/>
<path d="M1160 999 c0 -6 12 -31 26 -55 28 -47 63 -77 86 -73 7 2 27 -5 45
-14 33 -17 73 -23 72 -9 0 4 -31 27 -70 52 -38 25 -69 48 -69 52 0 8 -71 58
-82 58 -5 0 -8 -5 -8 -11z"/>
<path d="M1098 827 c-31 -12 -60 -25 -63 -29 -9 -9 178 -21 204 -13 14 4 21 3
19 -6 -3 -13 7 -15 150 -25 103 -7 127 0 80 24 -27 13 -196 60 -218 60 -8 0
-37 2 -65 6 -39 4 -63 0 -107 -17z"/>
<path d="M1892 844 c-6 -3 -10 -10 -6 -15 3 -5 -10 -9 -28 -9 -36 0 -187 -46
-203 -62 -12 -12 182 0 229 13 17 5 49 9 71 9 22 1 54 7 70 14 l30 14 -40 17
c-43 19 -102 28 -123 19z"/>
<path d="M2650 1705 c0 -8 4 -15 9 -15 5 0 14 7 21 15 10 13 9 15 -9 15 -12 0
-21 -6 -21 -15z"/>
<path d="M2650 1595 c0 -25 3 -45 8 -45 4 0 23 14 41 31 32 29 33 31 15 44
-11 8 -29 15 -41 15 -21 0 -23 -5 -23 -45z"/>
<path d="M3900 1635 c0 -36 4 -65 9 -65 11 0 61 65 61 79 0 11 -48 51 -61 51
-5 0 -9 -29 -9 -65z"/>
<path d="M3240 1075 c0 -95 4 -165 9 -165 23 0 121 182 121 224 0 16 -12 34
-37 54 -37 29 -76 52 -87 52 -3 0 -6 -74 -6 -165z"/>
<path d="M1320 393 c8 -3 23 -10 33 -15 12 -6 17 -5 17 4 0 8 -14 14 -33 15
-17 0 -25 -1 -17 -4z"/>
<path d="M1520 384 c0 -9 5 -14 12 -12 18 6 21 28 4 28 -9 0 -16 -7 -16 -16z"/>
<path d="M1800 369 c0 -38 24 -35 28 4 2 19 -1 27 -12 27 -11 0 -16 -10 -16
-31z"/>
<path d="M1916 385 c-8 -22 1 -35 25 -35 15 0 20 6 17 22 -4 27 -33 36 -42 13z"/>
<path d="M2050 385 c0 -8 5 -15 10 -15 6 0 10 7 10 15 0 8 -4 15 -10 15 -5 0
-10 -7 -10 -15z"/>
<path d="M2196 385 c-8 -22 1 -35 25 -35 15 0 20 6 17 22 -4 27 -33 36 -42 13z"/>
<path d="M2330 390 c0 -5 11 -10 25 -10 14 0 25 5 25 10 0 6 -11 10 -25 10
-14 0 -25 -4 -25 -10z"/>
<path d="M2470 385 c-17 -21 -3 -36 31 -33 28 2 31 5 33 29 1 17 -51 20 -64 4z"/>
<path d="M2630 370 c0 -5 5 -10 10 -10 6 0 10 5 10 10 0 6 -4 10 -10 10 -5 0
-10 -4 -10 -10z"/>
<path d="M2860 375 c0 -43 1 -45 28 -45 34 0 52 16 52 47 0 24 -26 43 -59 43
-18 0 -21 -6 -21 -45z"/>
<path d="M2985 400 c-26 -29 -7 -70 33 -70 50 0 69 41 34 73 -25 22 -45 21
-67 -3z"/>
<path d="M3150 375 c0 -43 1 -45 28 -45 34 0 52 16 52 47 0 24 -26 43 -59 43
-18 0 -21 -6 -21 -45z"/>
<path d="M3528 409 c-36 -21 -16 -79 27 -79 44 0 63 60 26 80 -24 12 -31 12
-53 -1z"/>
<path d="M3650 390 c0 -32 9 -36 41 -20 23 13 25 36 3 44 -33 13 -44 6 -44
-24z"/>
<path d="M3760 375 c0 -43 1 -45 28 -45 50 0 69 42 34 73 -10 10 -28 17 -40
17 -19 0 -22 -5 -22 -45z"/>
</g>
</svg>
