<?xml version="1.0" standalone="no"?>
<!DOCTYPE svg PUBLIC "-//W3C//DTD SVG 20010904//EN"
 "http://www.w3.org/TR/2001/REC-SVG-20010904/DTD/svg10.dtd">
<svg version="1.0" xmlns="http://www.w3.org/2000/svg"
 width="938.000000pt" height="563.000000pt" viewBox="0 0 938.000000 563.000000"
 preserveAspectRatio="xMidYMid meet">

<g transform="translate(0.000000,563.000000) scale(0.100000,-0.100000)"
fill="#000000" stroke="none">
<path d="M0 2815 l0 -2815 4690 0 4690 0 0 2815 0 2815 -4690 0 -4690 0 0
-2815z m5003 2466 c631 -136 1094 -604 1228 -1241 32 -154 33 -429 1 -587 -98
-489 -403 -892 -837 -1108 -236 -117 -437 -166 -695 -167 -80 0 -181 5 -225
12 -350 51 -655 205 -900 454 -694 704 -575 1856 248 2407 162 109 361 190
554 229 145 29 143 28 343 25 143 -2 208 -7 283 -24z m-3362 -3597 c56 -28 59
-50 59 -414 l0 -330 -80 0 -80 0 0 125 0 125 -60 0 -60 0 0 -125 0 -126 -77 3
-78 3 -3 300 c-3 322 3 388 41 422 32 30 40 31 180 32 98 1 135 -3 158 -15z
m1000 0 c56 -28 59 -50 59 -414 l0 -330 -80 0 -80 0 0 125 0 125 -60 0 -60 0
0 -125 0 -126 -77 3 -78 3 -2 305 c-3 352 2 391 56 427 31 21 45 23 163 23 98
0 136 -4 159 -16z m1543 2 c63 -26 66 -44 66 -415 l0 -331 -80 0 -80 0 0 125
0 125 -60 0 -60 0 0 -125 0 -125 -80 0 -81 0 3 339 c3 327 4 341 24 368 11 15
32 34 45 40 34 18 260 17 303 -1z m1360 0 c63 -26 66 -44 66 -415 l0 -331 -80
0 -80 0 0 125 0 125 -60 0 -60 0 0 -125 0 -125 -80 0 -81 0 3 339 c3 327 4
341 24 368 11 15 32 34 45 40 34 18 260 17 303 -1z m820 -15 c14 -14 30 -41
36 -60 6 -20 10 -174 10 -353 l0 -318 -80 0 -80 0 0 125 0 125 -60 0 -60 0 0
-125 0 -125 -80 0 -81 0 3 339 c3 327 4 341 24 368 36 49 57 54 206 51 129 -3
138 -4 162 -27z m2256 4 c47 -42 50 -63 50 -410 l0 -325 -80 0 -80 0 0 125 0
125 -60 0 -60 0 0 -125 0 -125 -80 0 -81 0 3 339 c3 327 4 341 24 368 36 49
57 54 205 51 121 -3 140 -5 159 -23z m-7551 2 c45 -23 65 -62 69 -137 5 -91
-4 -137 -33 -166 -24 -24 -24 -24 -4 -35 35 -18 49 -70 49 -178 0 -120 -17
-173 -64 -199 -25 -14 -64 -18 -203 -20 l-173 -4 0 376 0 376 168 0 c113 0
175 -4 191 -13z m1121 -52 l0 -64 -62 -3 -63 -3 -3 -307 -2 -308 -75 0 -75 0
-2 308 -3 307 -62 3 -63 3 0 64 0 65 205 0 205 0 0 -65z m797 -240 l-6 -305
90 0 89 0 0 -70 0 -70 -165 0 -165 0 0 375 0 375 82 0 81 0 -6 -305z m413 150
l0 -155 63 0 64 0 6 125 c4 68 4 138 1 155 l-6 30 81 0 81 0 0 -375 0 -376
-77 3 -78 3 -3 148 -3 147 -64 0 -65 0 0 -150 0 -150 -80 0 -80 0 0 375 0 375
80 0 80 0 0 -155z m1597 129 c47 -35 52 -67 52 -346 1 -379 7 -371 -266 -376
l-173 -4 0 377 0 376 179 -3 c164 -3 182 -5 208 -24z m1693 -279 l0 -305 90 0
90 0 0 -70 0 -70 -170 0 -170 0 0 375 0 375 80 0 80 0 0 -305z m647 279 c49
-37 54 -72 51 -364 -4 -366 6 -352 -265 -358 l-173 -4 0 377 0 376 179 -3
c164 -3 182 -5 208 -24z m513 -39 l0 -65 -90 0 -90 0 0 -90 0 -90 85 0 85 0 0
-60 0 -60 -85 0 -86 0 3 -92 3 -93 88 -3 87 -3 0 -64 0 -65 -170 0 -170 0 0
375 0 375 170 0 170 0 0 -65z m260 -310 l0 -375 -80 0 -80 0 0 375 0 375 80 0
80 0 0 -375z m-3442 -585 c13 0 20 -4 17 -10 -6 -10 -95 -10 -95 1 0 13 16 20
35 15 11 -3 30 -6 43 -6z m-3248 -65 c32 -16 59 -55 39 -55 -6 0 -24 11 -41
25 -82 69 -204 -16 -176 -122 20 -76 117 -108 176 -58 49 41 73 29 28 -14 -64
-60 -189 -35 -222 44 -41 99 20 195 124 195 24 0 56 -7 72 -15z m490 -3 c92
-49 91 -190 -1 -237 -98 -51 -209 14 -209 122 0 102 115 165 210 115z m395
-59 c19 -43 43 -95 53 -117 l18 -39 49 117 c37 87 54 116 67 116 16 0 18 -12
18 -135 0 -169 -18 -183 -22 -17 l-3 117 -50 -117 c-27 -65 -55 -118 -61 -118
-6 0 -34 53 -60 118 l-49 117 -3 -117 c-2 -85 -6 -118 -15 -118 -11 0 -14 97
-8 238 2 57 29 39 66 -45z m617 47 c10 -12 18 -37 18 -55 0 -47 -38 -75 -101
-75 l-49 0 0 -55 c0 -42 -3 -55 -15 -55 -13 0 -15 22 -15 136 l0 137 72 -5
c59 -5 75 -10 90 -28z m368 20 c0 -6 -27 -10 -60 -10 l-60 0 0 -50 0 -50 60 0
c47 0 60 -3 60 -15 0 -12 -13 -15 -60 -15 l-60 0 0 -50 0 -50 60 0 c33 0 60
-4 60 -10 0 -6 -30 -10 -70 -10 l-70 0 0 135 0 135 70 0 c40 0 70 -4 70 -10z
m330 0 c0 -5 -13 -10 -30 -10 l-30 0 0 -125 c0 -164 -18 -166 -22 -2 l-3 122
-32 3 c-63 6 -32 22 42 22 43 0 75 -4 75 -10z m200 -125 c0 -113 -2 -135 -15
-135 -13 0 -15 22 -15 135 0 113 2 135 15 135 13 0 15 -22 15 -135z m443 97
c37 -38 18 -43 -25 -7 -54 46 -141 25 -173 -41 -19 -41 -19 -58 1 -100 31 -65
118 -85 172 -39 37 31 57 34 42 5 -10 -19 -42 -37 -95 -55 -19 -7 -19 -7 3
-16 18 -7 23 -15 20 -36 -2 -23 -8 -28 -32 -28 -16 0 -31 6 -34 13 -3 9 3 11
23 6 23 -6 26 -4 23 12 -2 11 -11 18 -21 16 -11 -2 -17 4 -17 18 0 13 -7 20
-20 20 -11 0 -37 15 -56 33 -66 60 -56 171 19 218 50 31 128 22 170 -19z m437
-81 c60 -139 64 -151 50 -151 -6 0 -19 20 -30 45 l-19 45 -65 0 -65 0 -20 -45
c-11 -25 -25 -45 -32 -45 -13 0 -15 -5 52 151 35 82 56 119 66 117 8 -2 36
-54 63 -117z m496 88 c73 -68 69 -170 -10 -218 -62 -38 -128 -32 -177 18 -34
34 -39 44 -39 85 0 95 57 150 148 143 38 -3 59 -10 78 -28z m666 21 c57 -16
88 -60 88 -124 0 -90 -56 -136 -165 -136 l-55 0 0 135 0 135 48 0 c26 0 64 -5
84 -10z m458 0 c0 -6 -27 -10 -60 -10 l-60 0 0 -50 0 -50 61 0 c81 0 77 -24
-4 -28 l-57 -3 0 -49 0 -50 60 0 c33 0 60 -4 60 -10 0 -6 -30 -10 -70 -10
l-70 0 0 135 0 135 70 0 c40 0 70 -4 70 -10z m579 1 c70 -19 80 -117 16 -148
l-34 -16 35 -49 c24 -33 31 -48 21 -48 -13 0 -97 100 -97 115 0 3 10 5 23 5
38 0 67 27 67 64 0 43 -18 57 -77 59 l-48 2 -3 -122 c-4 -170 -22 -160 -22 12
l0 135 48 -1 c26 -1 58 -4 71 -8z m271 -126 c0 -83 -4 -135 -10 -135 -6 0 -10
52 -10 135 0 83 4 135 10 135 6 0 10 -52 10 -135z m316 20 c26 -63 50 -112 53
-110 2 3 25 54 51 113 37 85 50 108 68 110 22 3 22 2 22 -132 0 -113 -2 -136
-15 -136 -12 0 -15 22 -17 116 l-3 117 -48 -117 c-27 -64 -54 -116 -60 -116
-7 0 -32 49 -56 108 -25 59 -48 111 -53 117 -4 5 -8 -44 -8 -108 0 -71 -4
-117 -10 -117 -6 0 -10 52 -10 135 0 125 1 135 19 135 14 0 30 -27 67 -115z
m593 53 c73 -161 90 -208 77 -208 -8 0 -22 20 -33 45 l-18 45 -67 0 -66 0 -18
-45 c-9 -25 -23 -45 -30 -45 -12 0 -12 5 0 33 7 17 33 78 57 135 24 58 49 102
57 102 7 0 26 -28 41 -62z"/>
<path d="M4072 4330 c-12 -5 -27 -21 -32 -35 -16 -42 -13 -1074 3 -1105 10
-20 21 -26 54 -28 76 -6 73 -30 73 579 0 296 -3 545 -6 554 -5 13 -55 47 -66
44 -2 0 -13 -4 -26 -9z"/>
<path d="M5643 4330 c-12 -5 -24 -17 -27 -28 -4 -11 -7 -266 -9 -567 l-2 -547
24 -19 c31 -26 57 -24 86 6 l25 24 0 544 c0 504 -1 546 -17 565 -22 25 -51 33
-80 22z"/>
<path d="M4645 4245 l-25 -24 0 -481 c0 -467 1 -481 20 -500 25 -25 72 -26 93
-2 15 17 17 67 17 510 l0 491 -22 15 c-32 22 -55 20 -83 -9z"/>
<path d="M4265 4128 c-11 -6 -23 -16 -27 -22 -4 -6 -8 -170 -8 -363 0 -340 1
-354 20 -373 25 -25 72 -26 93 -2 15 17 17 58 17 380 l0 361 -22 15 c-26 19
-45 20 -73 4z"/>
<path d="M5445 4128 c-11 -6 -23 -16 -27 -22 -4 -6 -8 -170 -8 -363 0 -340 1
-354 20 -373 26 -26 72 -26 96 1 18 20 19 41 19 376 l0 355 -24 19 c-26 22
-47 23 -76 7z"/>
<path d="M4836 4048 c-14 -19 -16 -66 -16 -309 l0 -288 27 -21 c30 -24 69 -20
91 7 9 13 12 91 12 308 0 270 -1 293 -18 308 -27 25 -78 22 -96 -5z"/>
<path d="M3868 3995 c-36 -20 -40 -56 -36 -287 3 -166 5 -188 22 -207 24 -27
70 -27 96 -1 19 19 20 33 20 245 0 212 -1 226 -20 245 -23 23 -45 25 -82 5z"/>
<path d="M5037 3922 c-14 -16 -17 -44 -17 -179 0 -142 2 -162 18 -176 23 -21
61 -22 90 -1 21 15 22 21 22 175 0 146 -2 161 -20 179 -25 25 -72 26 -93 2z"/>
<path d="M3683 3870 c-34 -14 -43 -42 -43 -134 0 -75 3 -88 22 -106 27 -25 59
-26 89 -1 22 18 24 26 24 115 0 72 -4 99 -15 110 -21 20 -51 26 -77 16z"/>
<path d="M4457 3859 c-26 -20 -27 -25 -27 -115 0 -81 3 -97 20 -114 26 -26 51
-25 84 1 25 19 26 25 26 109 0 69 -4 92 -17 108 -28 31 -56 35 -86 11z"/>
<path d="M5253 3869 c-33 -12 -43 -41 -43 -127 0 -65 4 -84 21 -106 26 -33 62
-34 94 -1 22 21 25 33 25 99 0 41 -4 86 -9 99 -11 29 -57 48 -88 36z"/>
<path d="M1432 1588 c-8 -8 -12 -54 -12 -140 l0 -128 60 0 60 0 0 134 c0 147
0 146 -64 146 -18 0 -37 -5 -44 -12z"/>
<path d="M2432 1588 c-8 -8 -12 -54 -12 -140 l0 -128 60 0 60 0 0 134 c0 147
0 146 -64 146 -18 0 -37 -5 -44 -12z"/>
<path d="M3982 1588 c-8 -8 -12 -54 -12 -140 l0 -128 60 0 60 0 0 134 c0 147
0 146 -64 146 -18 0 -37 -5 -44 -12z"/>
<path d="M5342 1588 c-8 -8 -12 -54 -12 -140 l0 -128 60 0 60 0 0 134 c0 147
0 146 -64 146 -18 0 -37 -5 -44 -12z"/>
<path d="M6143 1593 c-10 -3 -13 -41 -13 -139 l0 -134 60 0 60 0 0 128 c0 86
-4 132 -12 140 -12 12 -71 15 -95 5z"/>
<path d="M8402 1588 c-8 -8 -12 -54 -12 -140 l0 -128 60 0 60 0 0 134 c0 147
0 146 -64 146 -18 0 -37 -5 -44 -12z"/>
<path d="M870 1480 l0 -101 53 3 52 3 0 95 0 95 -52 3 -53 3 0 -101z"/>
<path d="M870 1160 l0 -111 58 3 57 3 0 105 0 105 -57 3 -58 3 0 -111z"/>
<path d="M4770 1315 l0 -266 58 3 57 3 0 260 0 260 -57 3 -58 3 0 -266z"/>
<path d="M7110 1315 l0 -266 58 3 57 3 0 260 0 260 -57 3 -58 3 0 -266z"/>
<path d="M1776 639 c-29 -23 -56 -68 -56 -94 0 -31 30 -81 59 -98 86 -50 195
22 177 118 -15 78 -120 122 -180 74z"/>
<path d="M2790 601 l0 -61 45 0 c57 0 90 28 80 68 -9 39 -18 44 -74 50 l-51 5
0 -62z"/>
<path d="M4614 603 c-38 -90 -40 -83 21 -83 30 0 55 2 55 4 0 9 -50 116 -55
116 -2 0 -12 -17 -21 -37z"/>
<path d="M5049 643 c-55 -34 -73 -97 -44 -153 21 -42 53 -60 103 -60 37 0 50
6 78 34 28 28 34 41 34 78 0 50 -18 82 -60 103 -37 19 -78 19 -111 -2z"/>
<path d="M5758 654 c-5 -4 -8 -56 -8 -116 l0 -108 40 0 c22 0 56 6 75 14 75
32 87 146 20 190 -26 17 -116 31 -127 20z"/>
<path d="M8011 589 c-11 -29 -21 -56 -21 -60 0 -5 23 -9 50 -9 28 0 50 2 50 4
0 14 -44 116 -50 116 -4 0 -17 -23 -29 -51z"/>
</g>
</svg>
